#N canvas 317 56 1301 714 10;
#X msg 576 449 roomsize \$1;
#X msg 662 449 damping \$1;
#X msg 747 448 wet \$1;
#X msg 810 448 dry \$1;
#X obj 461 451 inlet~;
#X obj 459 592 outlet~;
#X obj 512 591 outlet~;
#X obj 134 142 vsl 30 100 0 127 0 1 s_room r_room roomsize 0 -9 0 10
-262144 -1 -1 6800 1;
#X floatatom 576 416 5 0 0 0 - - -, f 5;
#X obj 199 142 vsl 30 100 0 128 0 1 s_damping r_damping damping 0 -9
0 10 -262144 -1 -1 3480 1;
#X floatatom 662 414 5 0 0 0 - - -, f 5;
#X obj 265 143 vsl 30 100 0 128 0 1 s_wet r_wet wet 0 -9 0 10 -262144
-1 -1 4409 1;
#X floatatom 747 414 5 0 0 0 - - -, f 5;
#X obj 330 144 vsl 30 100 0 128 0 1 s_dry r_dry dry 0 -9 0 10 -262144
-1 -1 9095 1;
#X floatatom 810 413 5 0 0 0 - - -, f 5;
#X msg 337 449 bypass \$1;
#X obj 576 379 / 127;
#X obj 662 377 / 63.4;
#X obj 747 377 / 127;
#X obj 810 376 / 127;
#X obj 337 416 tgl 15 1 empty empty empty 17 7 0 10 -262144 -1 -1 64
64;
#X obj 337 380 loadbang;
#X obj 662 341 r s_damping;
#X obj 747 341 r s_wet;
#X obj 810 341 r s_dry;
#X obj 576 341 r s_room;
#X text 99 48 We introduce a reverb in order to achieve a more realistic
sound.;
#X text 160 320 This button allows to turn the reverb on and off.;
#X text 703 527 The reverb engine is a block that comes with Pure Data.
The argument that we pass to it are: the room dimension \, the damping
factor \, the wet and the dry amounts.;
#X obj 460 562 /~ 2;
#X obj 511 562 /~ 2;
#X text 959 659 Project: Pipe Organ Emulation with Pure Data;
#X text 966 675 Author: Nicola Simoni (nicola.simoni.89@gmail.com)
;
#X obj 460 535 freeverb;
#X connect 0 0 33 1;
#X connect 1 0 33 2;
#X connect 2 0 33 3;
#X connect 3 0 33 4;
#X connect 4 0 33 0;
#X connect 8 0 0 0;
#X connect 10 0 1 0;
#X connect 12 0 2 0;
#X connect 14 0 3 0;
#X connect 16 0 8 0;
#X connect 17 0 10 0;
#X connect 18 0 12 0;
#X connect 19 0 14 0;
#X connect 20 0 15 0;
#X connect 21 0 20 0;
#X connect 22 0 17 0;
#X connect 23 0 18 0;
#X connect 24 0 19 0;
#X connect 25 0 16 0;
#X connect 29 0 5 0;
#X connect 30 0 6 0;
#X connect 33 0 29 0;
#X connect 33 1 30 0;
#X coords 0 -1 1 1 300 160 1 100 100;
